<svg width="20" height="20" viewBox="0 0 20 20" fill="none" xmlns="http://www.w3.org/2000/svg">
<rect width="20" height="20" fill="white" fill-opacity="0.01"/>
<path fill-rule="evenodd" clip-rule="evenodd" d="M10 0C4.47715 0 0 4.47715 0 10C0 15.5228 4.47715 20 10 20C11.793 20 13.4758 19.5281 14.931 18.7017C14.9786 18.6803 15.0236 18.6542 15.0653 18.6241C18.0183 16.8859 20 13.6744 20 10C20 4.47715 15.5228 0 10 0ZM15.2411 16.6434C16.8598 15.3646 18 13.5068 18.3491 11.3826C16.7288 11.3944 15.3418 11.5102 14.106 11.7487C14.6494 13.3291 15.0173 14.9388 15.2411 16.6434ZM16.5334 4.62266C17.7073 6.0472 18.4242 7.86225 18.4601 9.84364C16.5817 9.8521 14.9791 9.99452 13.552 10.2923C13.1568 9.34553 12.6942 8.40198 12.1573 7.44719C13.6213 6.74254 15.0466 5.81887 16.5334 4.62266ZM15.4452 3.52305C13.9736 2.28459 12.0739 1.53846 10 1.53846C9.38268 1.53846 8.78079 1.60457 8.20104 1.73009C9.43436 3.26005 10.4822 4.70739 11.3658 6.11677C12.7331 5.47312 14.0592 4.62559 15.4452 3.52305ZM9.92466 6.71479C9.01517 5.28848 7.92548 3.81343 6.6295 2.23638C4.24548 3.27281 2.43193 5.37519 1.79052 7.94184C5.02393 7.89181 7.5799 7.56147 9.92466 6.71479ZM1.55397 9.48351C1.54368 9.65436 1.53846 9.82657 1.53846 10C1.53846 12.4249 2.55849 14.6116 4.19289 16.1543L5.21343 15.132C7.45839 12.9225 9.48863 11.4927 12.0471 10.6839C11.6742 9.81246 11.2394 8.94172 10.7362 8.05831C8.08232 9.06725 5.20683 9.44336 1.55397 9.48351ZM6.54781 15.9798C8.54453 14.0553 10.3377 12.8208 12.6062 12.1207C13.2184 13.8674 13.5992 15.6459 13.8005 17.5621C12.6577 18.1375 11.3667 18.4615 10 18.4615C8.30862 18.4615 6.73315 17.9653 5.41125 17.1104L6.06632 16.4531L6.54781 15.9798Z" fill="#6C757D"/>
</svg>
