<svg width="20" height="20" viewBox="0 0 20 20" fill="none" xmlns="http://www.w3.org/2000/svg">
<rect width="20" height="20" fill="white" fill-opacity="0.01"/>
<path fill-rule="evenodd" clip-rule="evenodd" d="M15.8013 0C16.1907 0 16.5126 0.289389 16.5635 0.664851L16.5705 0.769231V4.87179C16.5705 5.26123 16.2811 5.58307 15.9057 5.634L15.8013 5.64103H12.7244C12.603 5.64103 12.5013 5.72537 12.4747 5.83864L12.4679 5.89744V7.17949H15.8013C16.2684 7.17949 16.6194 7.58917 16.5654 8.03852L16.5475 8.13528L15.5219 12.2378C15.4458 12.5422 15.1942 12.7659 14.8914 12.8118L14.7756 12.8205H12.4679V19.2308C12.4679 19.6202 12.1786 19.942 11.8031 19.993L11.6987 20H7.59615C7.20672 20 6.88488 19.7106 6.83395 19.3351L6.82692 19.2308V12.8205H4.51923C4.1298 12.8205 3.80796 12.5311 3.75702 12.1557L3.75 12.0513V7.94872C3.75 7.55929 4.03939 7.23745 4.41485 7.18651L4.51923 7.17949H6.82692V5.89744C6.82692 2.71612 9.34592 0.123142 12.4981 0.00425855L12.7244 0H15.8013ZM15.0321 1.53846H12.7244C10.3878 1.53846 8.48058 3.37693 8.37041 5.68624L8.36538 5.89744V7.94872C8.36538 8.33815 8.076 8.65999 7.70053 8.71093L7.59615 8.71795H5.28846V11.2821H7.59615C7.98559 11.2821 8.30743 11.5714 8.35836 11.9469L8.36538 12.0513V18.4615H10.9295V12.0513C10.9295 11.6619 11.2189 11.34 11.5943 11.2891L11.6987 11.2821H14.1746L14.8156 8.71795H11.6987C11.3093 8.71795 10.9874 8.42856 10.9365 8.0531L10.9295 7.94872V5.89744C10.9295 4.95572 11.6547 4.18339 12.5772 4.10851L12.7244 4.10256H15.0321V1.53846Z" fill="#6C757D"/>
</svg>
