<svg width="20" height="20" viewBox="0 0 20 20" fill="none" xmlns="http://www.w3.org/2000/svg">
<rect width="20" height="20" fill="white" fill-opacity="0.01"/>
<path fill-rule="evenodd" clip-rule="evenodd" d="M5.42857 0H14.5714C17.5695 0 20 2.43045 20 5.42857V14.5714C20 17.5695 17.5695 20 14.5714 20H5.42857C2.43045 20 0 17.5695 0 14.5714V5.42857C0 2.43045 2.43045 0 5.42857 0ZM14.5714 1.71429H5.42857C3.37723 1.71429 1.71429 3.37723 1.71429 5.42857V14.5714C1.71429 16.6228 3.37723 18.2857 5.42857 18.2857H14.5714C16.6228 18.2857 18.2857 16.6228 18.2857 14.5714V5.42857C18.2857 3.37723 16.6228 1.71429 14.5714 1.71429ZM5.71429 10C5.71429 7.63307 7.63307 5.71429 10 5.71429C12.3669 5.71429 14.2857 7.63307 14.2857 10C14.2857 12.3669 12.3669 14.2857 10 14.2857C7.63307 14.2857 5.71429 12.3669 5.71429 10ZM12.5714 10C12.5714 8.57984 11.4202 7.42857 10 7.42857C8.57984 7.42857 7.42857 8.57984 7.42857 10C7.42857 11.4202 8.57984 12.5714 10 12.5714C11.4202 12.5714 12.5714 11.4202 12.5714 10ZM15.9922 4.74083C15.9354 4.32246 15.5768 4 15.1429 4C14.6695 4 14.2857 4.38376 14.2857 4.85829L14.2935 4.9746C14.3503 5.39297 14.7089 5.71543 15.1429 5.71543C15.6162 5.71543 16 5.33167 16 4.85714L15.9922 4.74083Z" fill="#6C757D"/>
</svg>
