<svg width="270" height="147" viewBox="0 0 270 147" fill="none" xmlns="http://www.w3.org/2000/svg">
<rect x="6.5" y="6" width="179" height="105" fill="white"/>
<rect x="9" y="6" width="175" height="1" rx="0.5" fill="#007BFF"/>
<rect x="9" y="111" width="175" height="1" rx="0.5" fill="#007BFF"/>
<path fill-rule="evenodd" clip-rule="evenodd" d="M6.5 7C6.77614 7 7 7.22386 7 7.5L7 111.5C7 111.776 6.77614 112 6.5 112C6.22386 112 6 111.776 6 111.5L6 7.5C6 7.22386 6.22386 7 6.5 7Z" fill="#007BFF"/>
<path fill-rule="evenodd" clip-rule="evenodd" d="M185.5 7C185.776 7 186 7.22386 186 7.5L186 110.5C186 110.776 185.776 111 185.5 111C185.224 111 185 110.776 185 110.5L185 7.5C185 7.22386 185.224 7 185.5 7Z" fill="#007BFF"/>
<rect x="6.5" y="0.843093" width="8" height="8" transform="rotate(45 6.5 0.843093)" fill="url(#paint0_linear_46_9421)" stroke="#007BFF"/>
<rect x="6.5" y="105.843" width="8" height="8" transform="rotate(45 6.5 105.843)" fill="url(#paint1_linear_46_9421)" stroke="#007BFF"/>
<rect x="185.5" y="0.843093" width="8" height="8" transform="rotate(45 185.5 0.843093)" fill="url(#paint2_linear_46_9421)" stroke="#007BFF"/>
<rect x="185.5" y="105.843" width="8" height="8" transform="rotate(45 185.5 105.843)" fill="url(#paint3_linear_46_9421)" stroke="#007BFF"/>
<rect x="84" y="35" width="179" height="105" fill="#E3FFF7"/>
<rect x="87" y="35" width="175" height="1" rx="0.5" fill="#007BFF"/>
<rect x="87" y="140" width="175" height="1" rx="0.5" fill="#007BFF"/>
<path fill-rule="evenodd" clip-rule="evenodd" d="M84.5 36C84.7761 36 85 36.2239 85 36.5L85 140.5C85 140.776 84.7761 141 84.5 141C84.2239 141 84 140.776 84 140.5L84 36.5C84 36.2239 84.2239 36 84.5 36Z" fill="#007BFF"/>
<path fill-rule="evenodd" clip-rule="evenodd" d="M263.5 36C263.776 36 264 36.2239 264 36.5V139.5C264 139.776 263.776 140 263.5 140C263.224 140 263 139.776 263 139.5V36.5C263 36.2239 263.224 36 263.5 36Z" fill="#007BFF"/>
<rect x="84.5" y="29.8431" width="8" height="8" transform="rotate(45 84.5 29.8431)" fill="url(#paint4_linear_46_9421)" stroke="#007BFF"/>
<rect x="84.5" y="134.843" width="8" height="8" transform="rotate(45 84.5 134.843)" fill="url(#paint5_linear_46_9421)" stroke="#007BFF"/>
<rect x="263.5" y="29.8431" width="8" height="8" transform="rotate(45 263.5 29.8431)" fill="url(#paint6_linear_46_9421)" stroke="#007BFF"/>
<rect x="263.5" y="134.843" width="8" height="8" transform="rotate(45 263.5 134.843)" fill="url(#paint7_linear_46_9421)" stroke="#007BFF"/>
<defs>
<linearGradient id="paint0_linear_46_9421" x1="10.9473" y1="-2.96097" x2="3.01752" y2="4.59213" gradientUnits="userSpaceOnUse">
<stop stop-color="white"/>
<stop offset="1" stop-color="#0042FF"/>
</linearGradient>
<linearGradient id="paint1_linear_46_9421" x1="10.9473" y1="102.039" x2="3.01752" y2="109.592" gradientUnits="userSpaceOnUse">
<stop stop-color="white"/>
<stop offset="1" stop-color="#0042FF"/>
</linearGradient>
<linearGradient id="paint2_linear_46_9421" x1="189.947" y1="-2.96097" x2="182.018" y2="4.59213" gradientUnits="userSpaceOnUse">
<stop stop-color="white"/>
<stop offset="1" stop-color="#0042FF"/>
</linearGradient>
<linearGradient id="paint3_linear_46_9421" x1="189.947" y1="102.039" x2="182.018" y2="109.592" gradientUnits="userSpaceOnUse">
<stop stop-color="white"/>
<stop offset="1" stop-color="#0042FF"/>
</linearGradient>
<linearGradient id="paint4_linear_46_9421" x1="88.9473" y1="26.039" x2="81.0175" y2="33.5921" gradientUnits="userSpaceOnUse">
<stop stop-color="#20C997"/>
<stop offset="1" stop-color="#91FFDE"/>
</linearGradient>
<linearGradient id="paint5_linear_46_9421" x1="88.9473" y1="131.039" x2="81.0175" y2="138.592" gradientUnits="userSpaceOnUse">
<stop stop-color="#20C997"/>
<stop offset="1" stop-color="#91FFDE"/>
</linearGradient>
<linearGradient id="paint6_linear_46_9421" x1="267.947" y1="26.039" x2="260.018" y2="33.5921" gradientUnits="userSpaceOnUse">
<stop stop-color="#20C997"/>
<stop offset="1" stop-color="#91FFDE"/>
</linearGradient>
<linearGradient id="paint7_linear_46_9421" x1="267.947" y1="131.039" x2="260.018" y2="138.592" gradientUnits="userSpaceOnUse">
<stop stop-color="#20C997"/>
<stop offset="1" stop-color="#91FFDE"/>
</linearGradient>
</defs>
</svg>
