<svg width="12" height="12" viewBox="0 0 12 12" fill="none" xmlns="http://www.w3.org/2000/svg">
<rect width="12" height="12" fill="white" fill-opacity="0.01"/>
<path fill-rule="evenodd" clip-rule="evenodd" d="M1.10348 2.14637C0.908216 2.34163 0.908216 2.65822 1.10348 2.85348L4.24992 5.99992L1.10348 9.14637C0.908216 9.34163 0.908216 9.65822 1.10348 9.85348L2.14637 10.8964C2.34163 11.0916 2.65822 11.0916 2.85348 10.8964L5.99992 7.74992L9.14637 10.8964C9.34163 11.0916 9.65822 11.0916 9.85348 10.8964L10.8964 9.85348C11.0916 9.65822 11.0916 9.34163 10.8964 9.14637L7.74992 5.99992L10.8964 2.85348C11.0916 2.65822 11.0916 2.34163 10.8964 2.14637L9.85348 1.10348C9.65822 0.908216 9.34163 0.908216 9.14637 1.10348L5.99992 4.24992L2.85348 1.10348C2.65822 0.908216 2.34163 0.908216 2.14637 1.10348L1.10348 2.14637Z" fill="#E25563"/>
</svg>
