<svg width="97" height="31" viewBox="0 0 97 31" fill="none" xmlns="http://www.w3.org/2000/svg">
<path d="M37.1654 27.0459C33.5675 24.7762 28.6847 24.378 20.8102 26.5174C12.4153 28.4492 9.61633 29.6876 5.94049 27.2016C4.52831 25.9804 4.02201 24.0141 4.40007 21.1818C5.27694 16.5647 7.64661 12.1214 11.8558 7.19279C14.2052 4.62893 16.3846 2.42866 19.2623 1.54513C21.4678 0.990857 21.2616 2.68822 20.9947 2.93097C20.7131 2.93097 20.2401 2.97441 19.8744 3.20805C19.5777 3.4334 18.7632 4.16106 18.7195 5.13988C18.6564 6.63829 20.2398 6.32642 20.9228 5.50371C21.659 4.57662 22.747 2.80125 21.8912 1.14662C21.5325 0.557668 20.9127 0.150636 20.1431 0.0120394C17.508 -0.135434 15.054 1.09466 12.789 2.45458C7.83576 5.82411 3.87347 10.4931 1.63144 15.6038C0.338913 18.6873 -0.830086 23.1044 0.922083 26.6995C2.2777 29.194 5.09178 30.5191 8.44927 30.242C10.8041 29.9997 13.6515 29.2544 15.5666 28.8044C17.4818 28.3536 27.2849 25.0538 30.5059 30.7971C30.5059 30.7971 31.577 28.761 34.2538 28.7175C36.4545 28.5187 39.6293 29.3414 41.9412 31.0042C41.171 29.8699 38.9872 28.1981 37.1654 27.0459Z" fill="black"/>
<path fill-rule="evenodd" clip-rule="evenodd" d="M92.1564 4.27156C89.9478 5.46401 87.6581 6.23623 84.8866 5.96766C84.1186 6.79069 83.3706 7.63863 82.6813 8.51169C86.5713 9.45209 90.6952 7.36145 92.9953 5.37177C95.4285 3.365 96.676 0.837952 96.676 0.837952C96.676 0.837952 94.8523 2.81925 92.1564 4.27156ZM59.7986 16.2865C59.5043 15.6821 58.8061 15.2958 58.0619 15.3377C55.6451 15.5478 53.2812 17.4368 52.0399 20.1486C51.3886 21.5425 51.0331 22.6926 50.8001 24.523C51.5517 23.7004 53.0846 22.3487 54.8241 21.6097C54.8241 21.6097 55.0608 19.855 56.2678 18.2933C56.7245 17.6466 57.6385 16.6055 58.6648 16.8825C59.5616 17.168 59.2463 19.5275 58.0545 21.8107C57.1727 23.4902 55.8232 25.1699 54.4579 26.3283C53.2508 27.3022 51.4648 28.4776 49.9022 27.571C48.918 27.0171 48.416 25.858 48.522 24.3636C48.9922 20.1237 51.0229 16.5133 53.9287 12.3993C56.925 8.57903 60.2278 4.65807 64.6772 2.56709C65.5847 2.13056 66.4252 2.02983 67.1516 2.29852C67.1516 2.29852 62.975 4.48151 60.984 8.52017L60.9619 8.56498C60.4574 9.58481 59.7834 10.9474 60.4825 12.1556C60.8532 12.7936 61.5112 12.8441 62.0412 12.8104C64.4816 12.2729 66.0583 10.1068 67.3466 8.12552C68.0935 6.62262 68.7573 5.1281 68.7573 3.46562C68.7573 3.26416 68.7463 2.99559 68.7285 2.7939C69.8943 2.20639 72.2853 3.24729 72.2853 3.24729C73.3834 3.59289 75.2105 4.73614 76.8027 5.73244L76.8027 5.73247C77.9194 6.4312 78.9205 7.05764 79.4737 7.28596C80.1282 6.564 81.2039 5.47262 81.8097 4.92675L80.9328 4.41451C79.5876 3.63406 78.169 2.89206 76.7679 2.15923L76.7678 2.1592L76.7677 2.15914L76.5849 2.06356C73.2682 0.342568 70.5684 0.946941 69.1945 1.4172C68.6545 1.60179 68.1611 1.76137 68.1611 1.76137C67.1414 0.703494 65.469 0.803993 64.2367 1.08966C59.8054 2.29863 55.6911 5.24558 51.2801 10.359C48.0371 14.364 46.0256 17.8233 44.9534 21.2404C44.1269 23.5409 43.8758 26.9245 45.8929 28.9313C47.6079 30.6353 49.882 30.2661 51.4878 29.6535C54.9672 28.0246 58.0945 24.5148 59.6527 20.4761C60.0288 19.2757 60.446 17.5797 59.7986 16.2865ZM13.4027 13.1464C16.3503 9.40184 20.0304 7.21885 21.8614 8.36071C23.5531 9.53233 22.2544 12.4762 21.8362 13.4241C21.7929 13.5222 21.7591 13.5989 21.7389 13.6501C22.3958 13.8099 24.4966 12.3827 25.7214 11.0979C26.6944 10.0734 28.3611 8.75536 29.4142 8.37769C30.2008 8.01642 31.4163 7.89905 32.213 8.35222C32.7477 8.64637 33.1058 9.25074 33.1435 9.88896C33.2489 11.6689 31.0701 14.5909 29.9777 13.1132C29.7528 12.475 29.9985 11.7948 30.7058 11.0894C31.0648 10.7368 31.5066 10.5775 32.0578 10.5943C32.2751 10.2668 32.2197 9.78858 31.8762 9.59515C31.5159 9.3852 30.7895 9.52838 30.1214 10.0234C27.7544 11.8119 25.6743 14.776 24.4672 18.0422C24.2535 18.655 24.1369 19.5881 24.5159 20.2263C25.5526 21.7452 27.9791 19.6311 27.9791 19.6311C29.617 18.2458 31.1966 16.3265 32.4373 14.6219C35.6598 10.189 39.9402 6.36633 41.8304 8.8515C41.8456 8.87054 41.8639 8.89891 41.8813 8.92587C41.9025 8.95868 41.9223 8.98938 41.9336 8.99858C41.9607 8.96496 42.294 8.45249 42.294 8.45249H45.3448C45.3448 8.45249 38.8833 19.1046 38.8748 19.1215C38.7405 19.3812 38.6547 19.748 38.8723 19.9243C39.0353 20.0336 39.3098 19.9132 39.3505 19.8954L39.3556 19.8932C40.8695 19.1951 43.122 16.2257 43.5519 15.6591C43.5978 15.5986 43.6229 15.5654 43.6241 15.5654H44.6749C43.0276 17.8598 40.988 20.5143 38.4563 22.2102C37.7534 22.6552 36.8287 23.1293 35.9151 22.8184C35.0481 22.2994 35.1034 21.6661 35.1691 20.9125L35.1691 20.9124L35.1691 20.9122C35.1768 20.8245 35.1846 20.7351 35.1911 20.6441C35.1906 20.6441 35.1836 20.6518 35.1703 20.6663L35.1702 20.6665C34.9307 20.928 32.6798 23.3857 30.7794 22.8605C30.1154 22.659 29.0539 22.1128 29.8414 19.5099C29.8414 19.5099 29.9016 19.2753 29.9478 19.0996C29.7652 19.2672 29.4424 19.5607 29.4424 19.5607C27.5476 21.324 25.3999 23.3057 22.7102 22.8772C20.8961 22.3414 20.7563 20.6995 20.6953 19.9825C20.6884 19.9019 20.6826 19.8331 20.6754 19.7787C20.4639 18.1344 22.3838 14.9337 22.6497 14.4905L22.6497 14.4904C22.6689 14.4585 22.6795 14.4409 22.68 14.4392C22.0968 14.5988 21.5792 14.7164 21.1496 14.7916C21.1164 14.8421 20.4211 15.9336 20.4211 15.9336L20.3781 16.0014L20.3781 16.0014C19.6349 17.173 18.864 18.3883 17.8716 19.4015L17.6797 19.5948C16.1922 21.2486 12.6942 24.3382 10.81 22.2141C9.54329 20.4089 10.7072 16.5052 13.4027 13.1464ZM39.312 10.2415C38.8909 10.5941 37.1635 12.6848 36.57 13.4655C34.1837 16.5219 33.4105 18.7297 33.3466 19.4515C33.3241 19.6699 33.4031 19.8798 33.6035 20.0058C33.7699 20.1238 34.02 20.107 34.1717 20.0646C35.2357 19.5022 35.888 18.6961 36.5358 17.756C36.5358 17.756 36.9978 17.0845 36.9948 17.0928C38.4615 14.7753 40.0216 12.1976 41.3434 9.94747C41.2944 9.57829 40.7283 9.0572 39.312 10.2415ZM19.9732 14.8172C19.9732 14.8172 19.9465 14.893 19.9335 14.9178C19.9301 14.9178 18.6033 16.9746 18.6033 16.9746L18.5842 16.9988C17.7867 18.0109 16.7929 19.2721 15.5531 19.8799C15.1826 19.9974 14.6705 20.0732 14.4096 19.7628C13.8564 19.1329 14.1415 18.2596 14.3731 17.5546L14.4552 17.3026C15.1193 15.59 16.1729 14.0784 17.1986 12.6762C17.2114 12.6679 17.2401 12.6596 17.2505 12.6596C17.2513 12.6625 17.2524 12.6644 17.2535 12.6663C17.2555 12.67 17.2577 12.6738 17.2588 12.6848C17.9024 13.8601 19.1091 14.4056 20.0116 14.6579C20.017 14.6579 20.0229 14.6662 20.0229 14.6831C20.0231 14.7081 20.0083 14.7419 19.9732 14.8172ZM20.6392 13.684C20.6392 13.684 21.2243 12.4078 21.2302 12.391C21.4311 11.8199 21.6083 11.207 21.6082 10.6615C21.6082 10.2583 21.5113 9.88896 21.2555 9.60341C20.8408 9.29262 20.1266 9.45209 19.6672 9.75462C19.1885 10.0987 18.1019 11.0475 18.3663 12.2565C18.5581 12.8778 19.1802 13.3984 20.005 13.6417L20.2676 13.684L20.288 13.6884C20.4327 13.7204 20.5584 13.7481 20.6392 13.684ZM62.2167 11.8366C63.2328 11.6019 67.3389 8.65463 67.7994 3.63369C67.8174 3.44875 67.8191 3.31475 67.7574 3.10481C65.2276 4.33913 62.8695 6.74859 61.4884 9.58677C60.5505 11.6939 61.601 11.954 62.2167 11.8366ZM47.518 8.45272H50.4153L48.7804 10.9767H45.8837L47.518 8.45272Z" fill="black"/>
<path fill-rule="evenodd" clip-rule="evenodd" d="M84.1598 26.8179C83.9966 27.2848 84.4334 27.4414 84.7443 27.2377C86.4663 26.2633 87.8481 24.2493 88.9452 22.6501L89.0672 22.4724H90.0966C89.3115 23.7487 86.2876 28.163 83.7614 29.4877C83.6617 29.5394 83.5639 29.5924 83.4671 29.6447C82.8807 29.9622 82.3333 30.2585 81.6353 30.1342C80.4487 29.9901 80.3899 28.5463 80.6065 27.7398C79.932 28.4274 78.4785 29.7693 77.1742 30.1088C76.0386 30.3208 74.5491 29.8875 74.9597 27.1196C73.047 29.4296 70.6956 31.1785 69.2754 29.4887C68.2815 28.2916 68.7681 26.2705 69.8203 23.299C69.8203 23.299 70.1746 22.2797 70.2138 22.1528C70.1987 22.144 70.1948 22.144 70.1858 22.144C69.6089 22.2871 68.8758 22.3277 68.6183 22.342H68.6183H68.6183L68.618 22.342C68.5696 22.3446 68.5381 22.3464 68.5276 22.3477C66.8675 25.1499 64.7613 28.2149 61.747 29.7434C61.3036 29.964 60.1748 30.4226 59.278 29.9814C58.4058 29.5058 58.0641 28.5546 58.2319 27.0775C58.4702 25.1921 59.3307 23.5456 60.1938 22.0084C61.7986 19.5887 64.0224 16.6506 66.9976 15.4618C67.6619 15.1734 68.647 14.995 69.444 15.3771C70.1237 15.8524 70.3059 16.5399 70.3059 17.2707C70.3059 17.6103 70.2642 17.9582 70.2194 18.298C69.9605 19.4867 69.4429 20.5823 69.0319 21.3973C69.23 21.5248 70.3955 21.2613 70.6972 21.0408C74.8597 12.6686 79.6206 6.53802 85.2589 2.28397L85.3031 2.25867C86.4 1.53667 87.763 0.645392 89.0137 0.87465C89.3974 0.942639 89.6911 1.23977 89.7593 1.63042C89.964 2.84435 89.4088 3.8636 88.9078 4.7717C88.4758 4.90791 87.8181 5.02684 87.8181 5.02684L88.2824 4.10968C88.6137 3.48143 88.9025 2.92939 88.8658 2.18233C88.769 1.98672 88.657 1.97825 88.57 1.98672C87.7462 2.1481 86.6892 3.13301 85.6689 4.09251L85.0091 4.70406C80.8165 8.73721 75.8895 17.1685 75.1269 18.9351C76.8483 18.1286 82.5263 12.7111 85.301 8.98352C85.869 8.9667 86.3501 8.87319 86.3501 8.87319C85.9057 9.71377 82.8651 13.4753 79.2584 16.7956C77.5965 18.3324 75.7679 19.7334 74.1654 20.8032C73.3776 22.442 72.5957 24.2505 72.259 26.1528C72.2212 26.416 72.1314 27.5458 73.0023 27.4778C74.1177 27.2399 76.1273 24.04 76.1273 24.04L76.2009 23.9291C78.0985 21.0672 80.4995 17.4462 83.7747 15.6019C84.5377 15.1859 85.6438 14.969 86.3977 15.4278C86.5734 15.5379 87.0004 16.0472 87.1431 16.2762C87.1431 16.2762 87.4567 15.7434 87.6035 15.5114H90.6893L86.1842 23.2066C86.1842 23.2066 84.5667 25.6292 84.1598 26.8179ZM61.8509 26.1911C61.8562 26.4621 61.9093 26.7127 62.0695 26.9421C63.4061 28.4364 66.6098 24.1445 67.5438 22.1405C66.7917 21.8262 65.5458 21.0804 64.9958 19.9202H64.993C63.6802 21.5445 61.8201 24.526 61.8509 26.1911ZM68.0711 21.2446C67.9822 21.3045 66.4112 20.7947 66.1075 19.3937C65.8499 18.1875 66.7123 17.2451 67.5467 16.7701C67.9049 16.4981 68.4444 16.4051 68.8401 16.5404C69.2074 16.7786 69.3069 17.2034 69.3069 17.6611C69.3069 17.9326 69.2708 18.2111 69.2376 18.4671L69.2342 18.4935L69.2267 18.5531C68.9636 19.4945 68.5752 20.3991 68.0711 21.2446ZM80.3739 26.6619C80.3739 26.6619 80.6707 26.4072 80.672 26.4072C82.1965 24.5813 83.416 22.5013 84.5916 20.4889C84.6609 20.3715 84.7305 20.2534 84.8003 20.135C85.3361 19.226 85.8865 18.2923 86.4612 17.398C86.4883 17.3557 86.5355 17.2199 86.5355 17.1687C86.5355 17.0076 86.4153 16.8462 86.312 16.7529C85.8631 16.5745 85.4379 16.8033 85.046 17.0756C82.7606 18.836 81.1919 21.3592 79.8455 23.5249C79.8218 23.563 79.7982 23.601 79.7747 23.6388L79.6532 23.8851L79.6484 23.8947C79.1762 24.8341 78.6913 25.7988 78.7152 26.8397C78.7398 26.9845 78.8421 27.1712 78.9875 27.222C79.5024 27.4131 79.9308 27.0438 80.3459 26.686C80.3552 26.6779 80.3646 26.6699 80.3739 26.6619Z" fill="black"/>
</svg>
