<svg width="133" height="27" viewBox="0 0 133 27" fill="none" xmlns="http://www.w3.org/2000/svg">
<path fill-rule="evenodd" clip-rule="evenodd" d="M2.70978 26.0638H8.07735V13.0556H11.6588L12.1331 8.57355H8.07735L8.0841 6.33006C8.0841 5.16101 8.19455 4.53441 9.86961 4.53441H12.1086V0.0511169H8.52649C4.22409 0.0511169 2.71039 2.22519 2.71039 5.88222V8.57416H0.027832V13.0562H2.70978V26.0638ZM50.8277 12.3577C49.0048 12.3577 48.5888 13.3597 48.5888 14.6006V15.2979H53.0642V14.6006C53.0642 13.3597 52.6482 12.3577 50.8277 12.3577ZM68.2766 12.8099C67.182 12.8099 66.393 13.1693 65.5929 13.5354V21.8201C66.3592 21.8932 66.7985 21.8932 67.5256 21.8932C70.153 21.8932 70.5131 20.6885 70.5131 19.0065V15.0497C70.5131 13.8075 70.1014 12.8099 68.2766 12.8099ZM18.5094 22.4725C17.4884 22.4725 17.0258 21.9626 17.0258 20.9809C17.0258 19.9937 17.524 19.7824 18.6579 19.7824H21.0527V21.7476C20.9753 21.7831 20.8994 21.8186 20.8243 21.8536C20.1235 22.1808 19.4987 22.4725 18.5094 22.4725ZM85.25 12.8099C83.424 12.8099 82.7914 13.8075 82.7914 15.0497V19.5827C82.7914 20.828 83.424 21.8287 85.25 21.8287C87.0711 21.8287 87.7086 20.828 87.7086 19.5827V15.0497C87.708 13.8075 87.0705 12.8099 85.25 12.8099ZM26.4215 26.0976H21.9479L21.7546 24.9648C19.712 26.0976 17.8891 26.2813 16.6865 26.2813C13.4057 26.2813 11.6594 24.0869 11.6594 21.0522C11.6594 17.4719 13.6971 16.1942 17.3424 16.1942H21.0527V15.4201C21.0527 13.5925 20.8434 13.0562 18.0363 13.0562H13.4468L13.8953 8.57416H18.9119C25.071 8.57416 26.4215 10.5222 26.4215 15.4564V26.0976ZM36.7112 12.8019C38.0506 12.8019 38.8501 12.9069 41.6339 13.3849V9.01525C39.1955 8.46543 37.607 8.32107 36.2645 8.32107C30.5018 8.32107 28.2113 11.3607 28.2113 15.7476V18.8873C28.2113 23.2705 30.5018 26.3046 36.2645 26.3046C37.607 26.3046 39.1955 26.1609 41.6339 25.6135V21.2414C38.8501 21.7212 38.0506 21.8281 36.7112 21.8281C34.3053 21.8281 33.5782 21.2942 33.5782 19.2486V15.379C33.5782 13.3333 34.3053 12.8019 36.7112 12.8019ZM58.4312 18.8873H48.5882V19.2486C48.5882 21.2942 49.3159 21.8281 51.7211 21.8281C53.8834 21.8281 55.2032 21.7212 57.982 21.2414V25.6135C55.3019 26.1609 53.9054 26.3046 51.2763 26.3046C45.5129 26.3046 43.2212 23.2705 43.2212 18.8873V15.2973C43.2212 11.4621 44.9214 8.32107 50.8271 8.32107C56.7328 8.32107 58.4312 11.4258 58.4312 15.2973V18.8873ZM67.344 26.2966C74.6701 26.2966 75.8795 23.2066 75.8795 18.9703H75.8789V14.6012C75.8789 10.7304 74.9849 8.32168 69.6185 8.32168C68.2527 8.32168 66.7519 8.54099 65.5922 8.97224V0.501412L60.2265 1.3977V25.6141C63.1465 26.0638 64.6983 26.2966 67.344 26.2966ZM93.0799 19.0624C93.0799 22.717 91.5729 26.2616 85.2678 26.2616C78.9596 26.2616 77.4245 22.717 77.4245 19.0624V15.5338C77.4245 11.8774 78.9596 8.33212 85.2678 8.33212C91.5729 8.33212 93.0799 11.8774 93.0799 15.5338V19.0624ZM102.456 26.2616C108.76 26.2616 110.269 22.717 110.269 19.0624V15.5338C110.269 11.8774 108.76 8.33212 102.456 8.33212C96.1478 8.33212 94.6126 11.8774 94.6126 15.5338V19.0624C94.6126 22.717 96.1478 26.2616 102.456 26.2616ZM127.908 26.0638H122.092L117.173 17.8424V26.0638H111.806V1.39709L117.173 0.500798V16.3803L122.092 8.57416H127.908L122.538 17.0929L127.908 26.0638ZM99.982 15.0497C99.982 13.8075 100.615 12.8099 102.438 12.8099C104.258 12.8099 104.902 13.8075 104.902 15.0497V19.5827C104.902 20.828 104.258 21.8287 102.438 21.8287C100.615 21.8287 99.982 20.828 99.982 19.5827V15.0497ZM130.972 22.9959C131.876 22.9959 132.596 23.7337 132.596 24.6552C132.596 25.5908 131.875 26.3206 130.965 26.3206C130.06 26.3206 129.325 25.5908 129.325 24.6552C129.325 23.7337 130.06 22.9959 130.965 22.9959H130.972ZM129.641 24.6552C129.641 23.8811 130.237 23.2539 130.965 23.2539H130.972C131.707 23.2539 132.294 23.8817 132.294 24.6625C132.294 25.4433 131.707 26.0699 130.972 26.0626C130.238 26.0626 129.641 25.4433 129.641 24.6552ZM130.657 25.6209H130.362V23.7693L130.377 23.7673C130.526 23.7465 130.671 23.7263 130.885 23.7263C131.165 23.7263 131.347 23.7853 131.46 23.8658C131.568 23.9475 131.627 24.0722 131.627 24.2485C131.627 24.493 131.466 24.6398 131.268 24.6994V24.7135C131.429 24.7436 131.539 24.8898 131.576 25.162C131.619 25.4501 131.664 25.5601 131.693 25.6203H131.384C131.341 25.5601 131.296 25.3911 131.259 25.1472C131.216 24.912 131.097 24.8235 130.862 24.8235H130.657V25.6209H130.657ZM130.87 24.5962H130.657V23.9684C130.707 23.9616 130.774 23.9542 130.87 23.9542C131.201 23.9542 131.317 24.1158 131.317 24.278C131.317 24.5071 131.112 24.5962 130.87 24.5962Z" fill="black"/>
</svg>
