<svg width="98" height="27" viewBox="0 0 98 27" fill="none" xmlns="http://www.w3.org/2000/svg">
<path fill-rule="evenodd" clip-rule="evenodd" d="M10.7771 25.4239H10.7771L10.777 25.4239C10.1707 25.4862 9.55773 25.5491 8.93643 25.6332L4.22832 11.6267V26.2343C2.90543 26.3757 1.68722 26.5597 0.441437 26.7478H0.441426H0.441407L0.441371 26.7479L0.0349121 26.8092V0.0502319H3.94549L9.29656 15.233V0.0502319H13.4386V25.0844C12.5624 25.2406 11.6771 25.3315 10.7771 25.4239ZM21.5425 9.84965C22.3569 9.84965 23.3925 9.82921 24.4063 9.8092L24.4064 9.8092C25.3784 9.79002 26.3304 9.77123 27.0481 9.77123V13.9522C25.2214 13.9522 23.0862 13.9522 21.5425 14.0306V20.2501C22.2284 20.2057 22.9143 20.157 23.6008 20.1083L23.6009 20.1083L23.601 20.1083L23.6011 20.1082L23.6012 20.1082L23.6012 20.1082C25.3351 19.9852 27.0725 19.8619 28.8232 19.8057V23.8298L17.4261 24.7446V0.0502319H28.8232V4.23132H21.5425V9.84965ZM39.86 4.23142H44.1306L44.1308 0.0502319H31.4733V4.23142H35.7439V23.5165C37.0815 23.4644 38.4707 23.4644 39.86 23.4644V4.23142ZM50.8195 9.56228H56.4538V13.7433H50.8195V23.2292H46.7802V0.0502319H58.2804V4.23132H50.8195V9.56228ZM70.0954 19.8227C68.3996 19.7165 66.6777 19.6087 64.9693 19.5706V0.0502319H60.8531V23.5165C64.6092 23.5951 68.2882 23.83 71.967 24.0653V19.9364C71.3482 19.9012 70.7237 19.8621 70.0956 19.8227L70.0954 19.8227ZM75.4401 24.3528L75.6562 24.3657L75.6562 24.3657C76.9041 24.4401 78.2147 24.5183 79.4792 24.6663V0.0502319H75.4401V24.3528ZM92.2912 12.7764L97.5139 0.0502319H93.0117L90.1301 7.07969L87.4288 0.0502319H83.004L87.7893 12.6195L82.4896 24.8753C83.1064 24.9617 83.7145 25.0258 84.321 25.0898C85.1816 25.1805 86.0392 25.2709 86.9146 25.4243L89.9244 18.3164L92.8829 26.0513C93.2685 26.1166 93.6541 26.1835 94.0397 26.2504C95.1977 26.4514 96.3558 26.6523 97.5139 26.8092L92.2912 12.7764Z" fill="black"/>
</svg>
