<svg width="130" height="27" viewBox="0 0 130 27" fill="none" xmlns="http://www.w3.org/2000/svg">
<path fill-rule="evenodd" clip-rule="evenodd" d="M129.421 11.9669V9.65683H126.603V6.06555L126.508 6.09528L123.862 6.91969L123.81 6.93583V9.65696H119.633V8.14105C119.633 7.4352 119.788 6.89504 120.093 6.53481C120.397 6.17889 120.831 5.99795 121.384 5.99795C121.782 5.99795 122.194 6.09338 122.609 6.28156L122.713 6.32883V3.89602L122.664 3.87772C122.277 3.73617 121.751 3.66489 121.099 3.66489C120.277 3.66489 119.53 3.84697 118.879 4.20784C118.227 4.56922 117.715 5.08511 117.356 5.74102C116.998 6.39618 116.816 7.15286 116.816 7.99023V9.65683H114.855V11.9669H116.816V21.6988H119.633V11.9669H123.81V18.1513C123.81 20.6984 124.99 21.9891 127.317 21.9891C127.699 21.9891 128.102 21.9435 128.513 21.8542C128.931 21.7624 129.216 21.6708 129.384 21.573L129.421 21.5506V19.2192L129.306 19.2963C129.154 19.4 128.963 19.4848 128.74 19.5478C128.516 19.612 128.329 19.6441 128.184 19.6441C127.639 19.6441 127.235 19.4946 126.985 19.1994C126.732 18.9015 126.603 18.3807 126.603 17.6521V11.9669H129.421ZM108.565 19.6445C107.543 19.6445 106.737 19.2994 106.169 18.6196C105.597 17.9363 105.308 16.9623 105.308 15.7246C105.308 14.4477 105.597 13.4484 106.169 12.7531C106.737 12.0623 107.536 11.7117 108.542 11.7117C109.519 11.7117 110.296 12.0466 110.853 12.7074C111.413 13.3717 111.697 14.3631 111.697 15.6549C111.697 16.9625 111.43 17.967 110.903 18.6389C110.38 19.3057 109.593 19.6445 108.565 19.6445ZM104.086 11.0961C105.191 9.94857 106.74 9.36674 108.69 9.36674C110.527 9.36674 111.985 9.92329 113.021 11.0213C114.056 12.1187 114.581 13.6466 114.581 15.5615C114.581 17.5001 114.022 19.0733 112.918 20.2355C111.814 21.3989 110.296 21.9889 108.405 21.9889C106.591 21.9889 105.124 21.429 104.047 20.3238C102.969 19.219 102.423 17.7024 102.423 15.817C102.423 13.832 102.983 12.2438 104.086 11.0961ZM97.8821 9.36674C96.5555 9.36674 95.4581 9.71223 94.6198 10.3934C93.7764 11.0787 93.3486 11.9774 93.3486 13.065C93.3486 13.6303 93.4409 14.1325 93.6226 14.5584C93.8055 14.9857 94.0884 15.362 94.4643 15.6777C94.8373 15.991 95.4132 16.319 96.1762 16.6528C96.8177 16.9216 97.2961 17.1489 97.5999 17.3281C97.897 17.5037 98.1078 17.6802 98.2268 17.8521C98.3425 18.0203 98.4012 18.2506 98.4012 18.5347C98.4012 19.3437 97.8061 19.7374 96.5817 19.7374C96.1275 19.7374 95.6095 19.6408 95.042 19.4505C94.4786 19.263 93.9468 18.9885 93.4652 18.6365L93.3483 18.5511V21.3119L93.3912 21.3322C93.7897 21.5195 94.2922 21.6774 94.8844 21.8017C95.4754 21.9261 96.0125 21.9894 96.479 21.9894C97.9186 21.9894 99.0779 21.6422 99.9238 20.957C100.775 20.267 101.206 19.347 101.206 18.2219C101.206 17.4102 100.974 16.7141 100.516 16.1527C100.062 15.5959 99.2727 15.0847 98.172 14.6329C97.2952 14.2745 96.7334 13.9771 96.5017 13.7487C96.2783 13.5282 96.1648 13.2162 96.1648 12.8212C96.1648 12.471 96.3049 12.1904 96.5923 11.9632C96.882 11.7349 97.2852 11.6187 97.7909 11.6187C98.2601 11.6187 98.7403 11.6942 99.2178 11.8421C99.6949 11.99 100.114 12.1881 100.464 12.4304L100.579 12.5105V9.89165L100.535 9.87233C100.212 9.73142 99.7864 9.61083 99.2694 9.51299C98.7549 9.41578 98.2881 9.36674 97.8821 9.36674ZM83.6102 18.6196C84.1781 19.2994 84.9843 19.6445 86.0063 19.6445C87.0349 19.6445 87.8211 19.3057 88.3441 18.6389C88.8708 17.967 89.138 16.9625 89.138 15.6549C89.138 14.3631 88.8541 13.3717 88.2943 12.7074C87.7373 12.0466 86.9599 11.7117 85.9837 11.7117C84.9768 11.7117 84.1787 12.0623 83.6109 12.7531C83.039 13.4484 82.7496 14.4477 82.7496 15.7246C82.7496 16.9625 83.0387 17.9363 83.6102 18.6196ZM86.1319 9.36674C84.1811 9.36674 82.6319 9.94857 81.528 11.0961C80.4243 12.2438 79.8643 13.832 79.8643 15.817C79.8643 17.7032 80.4109 19.219 81.4885 20.3238C82.566 21.429 84.0323 21.9889 85.8466 21.9889C87.7368 21.9889 89.2554 21.3989 90.3594 20.2355C91.463 19.0733 92.0225 17.5001 92.0225 15.5615C92.0225 13.6466 91.4976 12.1187 90.4619 11.0213C89.4257 9.92329 87.9687 9.36674 86.1319 9.36674ZM75.5891 9.65683V11.7422H75.6187C75.8786 11.0655 76.2186 10.5228 76.689 10.127C77.2249 9.67665 77.8505 9.44793 78.5496 9.44793C79.0134 9.44793 79.38 9.50448 79.639 9.61655L79.6841 9.63624V12.4919L79.5672 12.4057C79.4384 12.3111 79.22 12.2213 78.9184 12.1386C78.6138 12.0553 78.3325 12.0133 78.0819 12.0133C77.3426 12.0133 76.737 12.3387 76.2826 12.9809C75.8223 13.6308 75.5891 14.4913 75.5891 15.5387V21.6985H72.807V9.65683H75.5891ZM67.8248 9.36674C66.5484 9.36674 65.41 9.64539 64.4416 10.1947C63.4713 10.7453 62.7209 11.5313 62.2103 12.5308C61.702 13.5279 61.4439 14.6926 61.4439 15.9915C61.4439 17.1292 61.6941 18.1733 62.1887 19.0935C62.6835 20.0153 63.3839 20.7364 64.2705 21.2365C65.1559 21.736 66.1791 21.9893 67.3121 21.9893C68.6342 21.9893 69.7631 21.7201 70.6681 21.1894L70.7047 21.168V18.5729L70.5878 18.6599C70.1778 18.9639 69.7196 19.2066 69.2267 19.3815C68.735 19.5562 68.2867 19.6445 67.8935 19.6445C66.8019 19.6445 65.9255 19.2967 65.2894 18.6111C64.6519 17.9245 64.3287 16.9605 64.3287 15.7474C64.3287 14.5266 64.6658 13.5378 65.3301 12.8082C65.9924 12.0807 66.8704 11.7117 67.9395 11.7117C68.8539 11.7117 69.745 12.027 70.588 12.6496L70.7047 12.7359V10.0016L70.667 9.97996C70.3498 9.79914 69.9171 9.64984 69.3799 9.53662C68.845 9.42366 68.3219 9.36674 67.8248 9.36674ZM56.7457 9.65696H59.5278V21.6985H56.7457V9.65696ZM58.1652 4.52716C57.7073 4.52716 57.3079 4.68586 56.9798 5.00035C56.6504 5.31573 56.4833 5.71282 56.4833 6.18144C56.4833 6.64269 56.6484 7.03253 56.9747 7.33952C57.299 7.64562 57.6996 7.80077 58.1653 7.80077C58.631 7.80077 59.0331 7.64562 59.3612 7.34003C59.6914 7.03253 59.8589 6.64281 59.8589 6.18144C59.8589 5.72921 59.6959 5.33619 59.3748 5.01306C59.0539 4.69057 58.6468 4.52716 58.1652 4.52716ZM51.2237 21.6985V8.76851H51.1321L46.0935 21.6985H44.0799L38.9614 8.76724H38.8698V21.6984H36.2017V4.89578H40.2913L45.1385 17.3764L50.1333 4.89578H54.063V21.6985H51.2237Z" fill="black"/>
<path d="M13.5756 12.8271H0V0H13.5756V12.8271Z" fill="black"/>
<path d="M28.0563 12.8271H14.4807V0H28.0563V12.8271Z" fill="black"/>
<path d="M13.5756 26.5705H0V13.7434H13.5756V26.5705Z" fill="black"/>
<path d="M28.0563 26.5705H14.4807V13.7434H28.0563V26.5705Z" fill="black"/>
</svg>
