<svg width="101" height="21" viewBox="0 0 101 21" fill="none" xmlns="http://www.w3.org/2000/svg">
<path fill-rule="evenodd" clip-rule="evenodd" d="M16.9837 0H20.816V12.1532C20.816 18.5474 16.7296 20.7917 10.8012 20.7917C4.89398 20.7917 0.807617 18.5474 0.807617 12.1532V0.486975C0.807617 0.14821 0.977 0 1.31577 0H5.14805V11.9627C5.14805 15.7949 6.84188 17.3829 10.8012 17.3829C14.7817 17.3829 16.4755 15.7949 16.4755 11.9627V0.486975C16.4755 0.14821 16.6449 0 16.9837 0ZM60.3668 3.32414V8.44797H70.064C70.2334 8.44797 70.2969 8.53266 70.2334 8.70204L69.1747 11.3275C69.0689 11.5604 68.9207 11.6662 68.6031 11.6662H62.9076C61.0444 11.6662 60.3668 12.2379 60.3668 13.4871V17.1077H73.494C73.6634 17.1077 73.7269 17.1924 73.6634 17.3617L72.5624 20.093C72.4565 20.3259 72.3083 20.4318 71.9907 20.4318H57.6144C56.5134 20.4318 56.0899 20.0507 56.0899 19.2249V1.41858C56.0899 0.423457 56.6404 0 58.0802 0H73.494C73.6634 0 73.7269 0.0846914 73.6634 0.232901L72.5624 2.98537C72.4565 3.21827 72.3083 3.32414 71.9907 3.32414H60.3668ZM41.2689 20.4318C45.3129 20.4318 48.1924 18.865 48.1924 14.7786C48.1924 12.3438 47.155 10.2688 44.8471 9.65482C46.5198 8.78673 47.2185 7.13525 47.2185 5.18735C47.2185 0.656358 43.5344 0 39.7233 0H31.0213C29.5603 0 29.031 0.423457 29.031 1.41858V19.2249C29.031 20.0507 29.4333 20.4318 30.5555 20.4318H41.2689ZM33.2444 8.51148H40.0409C42.2852 8.51148 42.9204 7.6434 42.9204 5.86488C42.9204 4.08636 42.2852 3.23945 40.0409 3.23945H33.2444V8.51148ZM40.8243 11.5815C43.238 11.5815 43.8944 12.5132 43.8944 14.3975C43.8944 16.2607 43.238 17.1924 40.8243 17.1924H33.2444V13.4024C33.2444 12.1532 33.9431 11.5815 35.8063 11.5815H40.8243ZM100.214 20.4318H96.3183C96.0007 20.4318 95.8737 20.3048 95.7467 20.093L91.618 12.6402H87.828C85.9648 12.6402 85.2661 13.2119 85.2661 14.4611V20.4318H81.5397C81.2009 20.4318 81.0315 20.2624 81.0315 19.9448V1.41858C81.0315 0.423457 81.582 0 83.0218 0H91.7662C96.8688 0 99.9389 1.33389 99.9389 6.28834C99.9389 10.1206 98.0968 11.6239 95.8102 12.2167L100.405 20.0719C100.489 20.1989 100.489 20.4318 100.214 20.4318ZM92.4014 3.28179C95.0691 3.28179 95.6408 4.29809 95.6408 6.37303C95.6408 8.46914 95.0691 9.46426 92.4014 9.46426H85.2661V3.28179H92.4014Z" fill="black"/>
</svg>
