<svg width="82" height="25" viewBox="0 0 82 25" fill="none" xmlns="http://www.w3.org/2000/svg">
<path fill-rule="evenodd" clip-rule="evenodd" d="M59.6048 1.05773L58.6646 6.23821C55.8454 4.75725 49.4291 4.40685 49.4284 7.13454C49.4284 8.21816 50.8802 8.96341 52.6299 9.86163C55.2836 11.2239 58.6227 12.938 58.6227 16.7179C58.6227 22.7579 51.8402 24.9771 47.3443 24.9771C42.8497 24.9771 39.9079 23.6149 39.9079 23.6149L40.8874 18.1982C43.5848 20.2626 51.7583 20.8491 51.7583 17.5755C51.7583 16.1999 50.1493 15.3887 48.2835 14.448C45.7092 13.15 42.6459 11.6056 42.6459 7.99214C42.6459 1.36812 50.4099 0.00588989 53.6793 0.00588989C56.7037 0.00588989 59.6048 1.05773 59.6048 1.05773ZM81.587 24.5609H75.5376L74.7659 20.9775H66.3907L65.0173 24.5609H58.1495L67.9753 2.23412C67.9753 2.23412 68.571 0.436306 71.0166 0.436306H76.3126L81.587 24.5609ZM23.7179 0.436951L17.437 17.0296L16.6938 13.4566L16.6945 13.4578L14.4777 2.60904C14.4777 2.60904 14.2096 0.436951 11.3524 0.436951H0.968887L0.847046 0.845427C0.847046 0.845427 4.02236 1.47524 7.73851 3.6028L13.4623 24.5616H20.3267L30.8084 0.436951H23.7179ZM35.8486 24.5609H29.2604L33.3779 0.436951H39.9668L35.8486 24.5609ZM68.288 16.0274L71.7497 6.99967L73.6971 16.0274H68.288Z" fill="black"/>
</svg>
